# xmcd
#
# Track frame offsets: 
#        150
#        25269
#        46508
#        69274
#        92444
#        111309
#        131872
#        153990
#        177548
#        199930
#
# Disc length: 2946 seconds
#
# Revision: 0
# Processed by: cddbd v1.5.2PL0 Copyright (c) Steve Scherf et al.
# Submitted via: ExactAudioCopy v1.0b3
#
DISCID=810b800a
DTITLE=Mong Thi, Truc Quyen - Chi Toi
DYEAR=1999
DGENRE=
TTITLE0=Mong Thi - Chuyen do Hau Giang
TTITLE1=Truc Quyen - Canh buom chuyen ben
TTITLE2=Mong Thi - Tieng hat chim da da
TTITLE3=Truc Quyen - Manh tinh sau
TTITLE4=Mong Thi - Chi toi 2
TTITLE5=Truc Quyen - Noi nho que huong
TTITLE6=Truc Quyen - Thuong ve mua dong
TTITLE7=Mong Thi - Nam cum nui que huong
TTITLE8=Truc Quyen - Con gi ma mong
TTITLE9=Truc Quyen - Nhung dong luu niem
EXTD=
EXTT0=
EXTT1=
EXTT2=
EXTT3=
EXTT4=
EXTT5=
EXTT6=
EXTT7=
EXTT8=
EXTT9=
PLAYORDER=
